<?xml version="1.0" encoding="UTF-8"?>
<svg width="710px" height="606px" viewBox="0 0 710 606" xmlns="http://www.w3.org/2000/svg">
    <!-- Generator: sketchtool 58 (101010) - https://sketch.com -->
    <title>FD363652-3941-4208-BA78-913C8931FF8A</title>
    <desc>Created with sketchtool.</desc>
    <defs>
        <linearGradient x1="0%" y1="100%" x2="100%" y2="0%" id="linearGradient-1">
            <stop stop-color="#93B2EE" offset="0%"></stop>
            <stop stop-color="#E0EDFC" offset="100%"></stop>
        </linearGradient>
        <radialGradient cx="5.77174665%" cy="82.9720782%" fx="5.77174665%" fy="82.9720782%" r="264.574149%" gradientTransform="translate(0.057717,0.829721),scale(0.414286,1.000000),rotate(-21.342781),translate(-0.057717,-0.829721)" id="radialGradient-2">
            <stop stop-color="#FED4BD" offset="0%"></stop>
            <stop stop-color="#D497B1" offset="51.0662468%"></stop>
            <stop stop-color="#9586C0" offset="100%"></stop>
        </radialGradient>
        <path d="M88.3732195,6.31689185 C87.1955453,8.95419053 80.1955453,9.62085719 67.3732195,8.31689185 C48.1397307,6.36094384 48.3732195,-1.68310815 29.3732195,0.31689185 C24.7061807,0.808159088 18.1435278,2.77627524 16.3732195,6.31689185 C15.7065528,7.65022518 17.3732195,7.65022518 21.3732195,6.31689185 C16.0398861,8.31689185 11.7065528,10.9835585 8.37321946,14.3168919 C4.89914275,17.7909686 -1.62678054,28.3168919 0.373219461,40.3168919 C2.37321946,52.3168919 14.3732195,56.3168919 20.3732195,56.3168919 C24.3732195,56.3168919 28.7065528,55.6502252 33.3732195,54.3168919 C23.3732195,62.3168919 19.3732195,67.6502252 21.3732195,70.3168919 C24.3732195,74.3168919 51.3732195,61.3168919 53.3732195,56.3168919 C54.7065528,52.9835585 54.7065528,49.6502252 53.3732195,46.3168919 C60.7065528,52.9835585 68.7065528,56.3168919 77.3732195,56.3168919 C74.3732195,61.3168919 72.3732195,70.3168919 73.3732195,72.3168919 C74.3732195,74.3168919 75.3732195,76.3168919 80.3732195,74.3168919 C83.7065528,72.9835585 88.3732195,66.9835585 94.3732195,56.3168919 L109.373219,59.3168919 L88.3732195,6.31689185 Z" id="path-6"></path>
        <path d="M41.0769231,10.3476588 C47.0769231,8.34765879 53.3728669,0.956250283 55.0769231,0.347658788 C56.2129605,-0.0580688747 56.2129605,1.60859779 55.0769231,5.34765879 C59.6405437,2.01432546 62.3072103,0.347658788 63.0769231,0.347658788 C63.8466358,0.347658788 63.1799691,2.01432546 61.0769231,5.34765879 C65.7827798,3.07315411 69.1161131,1.73982078 71.0769231,1.34765879 C81.0769231,-0.652341212 86.2401648,-0.233962077 83.0769231,1.34765879 C79.0769231,3.34765879 76.4102564,6.01432546 75.0769231,9.34765879 C88.4102564,14.6809921 95.0769231,26.0143255 95.0769231,43.3476588 C95.0769231,43.3476588 96.0769231,39.3476588 97.0769231,40.3476588 C98.0769231,41.3476588 97.0769231,50.3476588 96.0769231,52.3476588 C98.0769231,52.3476588 99.0769231,49.3476588 100.076923,49.3476588 C101.076923,49.3476588 100.831242,58.4468276 101.076923,59.3476588 C101.322604,60.24849 103.490075,56.2161368 103.076923,60.3476588 C102.801488,63.1020068 101.801488,66.1020068 100.076923,69.3476588 C103.410256,68.0143255 104.74359,68.0143255 104.076923,69.3476588 C103.410256,70.6809921 96.4102564,73.3476588 83.0769231,77.3476588 C87.7435897,78.0143255 88.7435897,78.6809921 86.0769231,79.3476588 C83.4102564,80.0143255 78.7435897,80.6809921 72.0769231,81.3476588 C65.8281101,82.9414164 59.0370369,82.0716285 51.7037036,78.7382952 C41.7037036,81.4049619 34.8281101,81.6080831 31.0769231,79.3476588 C24.227158,76.4978937 20.5604913,74.831227 20.0769231,74.3476588 C19.5933548,73.8640905 21.9266882,74.1974239 27.0769231,75.3476588 C15.6102564,69.6809921 9.61025641,66.6809921 9.07692308,66.3476588 C8.54358974,66.0143255 9.21025641,65.6809921 11.0769231,65.3476588 C3.07692308,59.3476588 -0.58974359,55.6809921 0.0769230769,54.3476588 C0.743589744,53.0143255 1.74358974,53.3476588 3.07692308,55.3476588 C1.74358974,50.6809921 1.41025641,48.0143255 2.07692308,47.3476588 C3.07692308,46.3476588 4.07692308,48.3476588 4.07692308,48.3476588 C4.07692308,48.3476588 5.07692308,38.3476588 7.07692308,38.3476588 C8.41025641,38.3476588 9.41025641,39.3476588 10.0769231,41.3476588 L14.0769231,32.3476588 C19.4102564,19.6809921 28.4102564,12.3476588 41.0769231,10.3476588 Z" id="path-9"></path>
    </defs>
    <g id="ADPT_Errors" stroke="none" stroke-width="1" fill="none" fill-rule="evenodd">
        <g id="ADPT_404-Copy" transform="translate(-445.000000, -158.000000)">
            <g id="img_404_page" transform="translate(445.000000, 158.000000)">
                <path d="M355.5,606 C223.779126,606 117,499.221265 117,367.500874 C117,235.78223 223.779126,129 355.5,129 C487.220874,129 594,235.78223 594,367.500874 C594,499.221265 487.220874,606 355.5,606 Z" id="Mask" fill="url(#linearGradient-1)" opacity="0.200000003"></path>
                <g id="Group-3">
                    <path d="M710,464.104961 C710,452.565131 700.65088,443.207551 689.118561,443.207551 C686.079623,443.207551 683.199506,443.874086 680.594363,445.041115 C681.793819,441.838901 682.452809,438.36865 682.452809,434.74659 C682.452809,418.5339 669.318054,405.388219 653.113545,405.388219 C644.138959,405.388219 636.110189,409.425381 630.72923,415.777624 C629.420733,400.774659 616.843038,389 601.50612,389 C585.868152,389 573.091338,401.246689 572.219006,416.676616 C569.142141,414.890492 565.57933,413.851552 561.765249,413.851552 C550.23293,413.851552 540.881439,423.20676 540.881439,434.74659 C540.881439,437.799367 541.552281,440.688476 542.728033,443.302431 C542.116452,443.250247 541.504872,443.207551 540.881439,443.207551 C529.34912,443.207551 520,452.565131 520,464.104961 C520,474.520459 527.62105,483.128484 537.58412,484.712987 L537.574639,484.736707 L537.726348,484.736707 C538.757501,484.89326 539.807618,485 540.881439,485 C541.957631,485 543.005377,484.89326 544.03653,484.736707 L685.961099,484.736707 C686.994623,484.89326 688.042369,485 689.118561,485 C690.194753,485 691.242499,484.89326 692.273652,484.736707 L692.425361,484.736707 L692.420621,484.712987 C702.381321,483.126112 710,474.518087 710,464.104961" id="Fill-6-Copy-2" fill="#FFFFFF"></path>
                    <path d="M245.971888,277 L245.971888,388.911672 L267,388.911672 L267,429.100946 L245.971888,429.100946 L245.971888,473 L196.493976,473 L196.493976,429.100946 L113,429.100946 L113,392.003155 L179.795181,277 L245.971888,277 Z M198,320 L196.77193,320 C192.615385,329.993763 188.019205,339.987526 183.355389,349.981289 L183.355389,349.981289 L180.807018,355.432432 L163,389 L196.157895,389 L196.157895,366.621622 C196.157895,354.741742 197.128222,337.704705 197.775106,324.67879 L197.775106,324.67879 L198,320 Z M358.5,476 C401.508475,476 431,440.521277 431,373.574468 C431,306.93617 401.508475,273 358.5,273 C315.491525,273 286,306.62766 286,373.574468 C286,436.407717 295.932993,476 358.5,476 Z M581.971888,277 L581.971888,388.911672 L603,388.911672 L603,429.100946 L581.971888,429.100946 L581.971888,473 L532.493976,473 L532.493976,429.100946 L449,429.100946 L449,392.003155 L515.795181,277 L581.971888,277 Z M358.776362,315 C371.087909,315 381.552724,322.984772 381.552724,374.57868 C381.552724,407.324079 391.594487,436 358.776362,436 C346.464815,436 336,426.172589 336,374.57868 C336,322.984772 346.464815,315 358.776362,315 Z M534,320 L532.77193,320 C528.615385,329.993763 524.019205,339.987526 519.355389,349.981289 L519.355389,349.981289 L516.807018,355.432432 L499,389 L532.157895,389 L532.157895,366.621622 C532.157895,353.999249 533.253303,335.55493 533.892291,322.285675 L533.892291,322.285675 L534,320 Z" id="404" fill="url(#radialGradient-2)" fill-rule="nonzero"></path>
                    <path d="M156,358.805125 C156,349.308806 148.323881,341.608297 138.855239,341.608297 C136.360111,341.608297 133.995384,342.1568 131.856425,343.117167 C132.841241,340.482012 133.382306,337.626285 133.382306,334.645632 C133.382306,321.303939 122.597981,310.486139 109.293227,310.486139 C101.924619,310.486139 95.3325764,313.808386 90.914526,319.035753 C89.8401807,306.689563 79.5132309,297 66.9208139,297 C54.0812197,297 43.5907826,307.078005 42.8745524,319.775549 C40.3482839,318.305718 37.4230285,317.450756 34.2914676,317.450756 C24.8228263,317.450756 17.1447606,325.149313 17.1447606,334.645632 C17.1447606,337.157813 17.6955572,339.535308 18.660911,341.686376 C18.1587713,341.643432 17.6566317,341.608297 17.1447606,341.608297 C7.67611942,341.608297 0,349.308806 0,358.805125 C0,367.376211 6.25728295,374.459898 14.4374883,375.763812 L14.4297032,375.783332 L14.554265,375.783332 C15.4008958,375.912161 16.2630968,376 17.1447606,376 C18.0283707,376 18.8886255,375.912161 19.7352563,375.783332 L136.262797,375.783332 C137.111374,375.912161 137.971629,376 138.855239,376 C139.738849,376 140.599104,375.912161 141.445735,375.783332 L141.570297,375.783332 L141.566404,375.763812 C149.744663,374.457946 156,367.374259 156,358.805125" id="Fill-6-Copy-3" fill="#FFFFFF"></path>
                    <path d="M551,61.8051245 C551,52.3088061 543.323881,44.6082971 533.855239,44.6082971 C531.360111,44.6082971 528.995384,45.1567998 526.856425,46.1171674 C527.841241,43.4820123 528.382306,40.6262848 528.382306,37.6456315 C528.382306,24.3039385 517.597981,13.4861386 504.293227,13.4861386 C496.924619,13.4861386 490.332576,16.808386 485.914526,22.0357531 C484.840181,9.68956315 474.513231,0 461.920814,0 C449.08122,0 438.590783,10.0780045 437.874552,22.7755485 C435.348284,21.3057175 432.423028,20.4507561 429.291468,20.4507561 C419.822826,20.4507561 412.144761,28.1493131 412.144761,37.6456315 C412.144761,40.1578128 412.695557,42.5353084 413.660911,44.6863758 C413.158771,44.6434325 412.656632,44.6082971 412.144761,44.6082971 C402.676119,44.6082971 395,52.3088061 395,61.8051245 C395,70.3762107 401.257283,77.4598982 409.437488,78.763812 L409.429703,78.7833317 L409.554265,78.7833317 C410.400896,78.9121615 411.263097,79 412.144761,79 C413.028371,79 413.888626,78.9121615 414.735256,78.7833317 L531.262797,78.7833317 C532.111374,78.9121615 532.971629,79 533.855239,79 C534.738849,79 535.599104,78.9121615 536.445735,78.7833317 L536.570297,78.7833317 L536.566404,78.763812 C544.744663,77.4579462 551,70.3742587 551,61.8051245" id="Fill-6-Copy-4" fill="#FFFFFF"></path>
                </g>
            </g>
        </g>
    </g>
</svg>
